HIERARCHY
ROOT Hips
{
	OFFSET 0.000000 0.000000 0.000000
	CHANNELS 6 Xposition Yposition Zposition Zrotation Yrotation Xrotation 
	JOINT LowerBack
	{
		OFFSET 0.000000 0.000000 0.000000
		CHANNELS 3 Zrotation Yrotation Xrotation
		JOINT Spine
		{
			OFFSET 0.028270 2.035590 -0.193380
			CHANNELS 3 Zrotation Yrotation Xrotation
			JOINT Spine1
			{
				OFFSET 0.056720 2.048850 -0.042750
				CHANNELS 3 Zrotation Yrotation Xrotation
				JOINT Neck
				{
					OFFSET 0.000000 0.000000 0.000000
					CHANNELS 3 Zrotation Yrotation Xrotation
					JOINT Neck1
					{
						OFFSET -0.054170 1.746240 0.172020
						CHANNELS 3 Zrotation Yrotation Xrotation
						JOINT Head
						{
							OFFSET 0.104070 1.761360 -0.123970
							CHANNELS 3 Zrotation Yrotation Xrotation
							End Site
							{
								OFFSET 0.000000 0.000000 0.000000
							}
						}
					}
				}
				JOINT LeftShoulder
				{
					OFFSET 0.000000 0.000000 0.000000
					CHANNELS 3 Zrotation Yrotation Xrotation
					JOINT LeftArm
					{
						OFFSET 3.362410 1.200890 -0.311210
						CHANNELS 3 Zrotation Yrotation Xrotation
						JOINT LeftForeArm
						{
							OFFSET 4.983000 -0.000000 -0.000000
							CHANNELS 3 Zrotation Yrotation Xrotation
							JOINT LeftHand
							{
								OFFSET 3.483560 -0.000000 -0.000000
								CHANNELS 3 Zrotation Yrotation Xrotation
								JOINT LeftFingerBase
								{
									OFFSET 0.000000 0.000000 0.000000
									CHANNELS 3 Zrotation Yrotation Xrotation
									JOINT LeftHandIndex1
									{
										OFFSET 0.715260 -0.000000 -0.000000
										CHANNELS 3 Zrotation Yrotation Xrotation
										End Site
										{
											OFFSET 0.000000 0.000000 0.000000
										}
									}
								}
								JOINT LThumb
								{
									OFFSET 0.000000 0.000000 0.000000
									CHANNELS 3 Zrotation Yrotation Xrotation
									End Site
									{
										OFFSET 0.000000 0.000000 0.000000
									}
								}
							}
						}
					}
				}
				JOINT RightShoulder
				{
					OFFSET 0.000000 0.000000 0.000000
					CHANNELS 3 Zrotation Yrotation Xrotation
					JOINT RightArm
					{
						OFFSET -3.136600 1.374050 -0.404650
						CHANNELS 3 Zrotation Yrotation Xrotation
						JOINT RightForeArm
						{
							OFFSET -5.241900 -0.000000 -0.000000
							CHANNELS 3 Zrotation Yrotation Xrotation
							JOINT RightHand
							{
								OFFSET -3.444170 -0.000000 -0.000000
								CHANNELS 3 Zrotation Yrotation Xrotation
								JOINT RightFingerBase
								{
									OFFSET 0.000000 0.000000 0.000000
									CHANNELS 3 Zrotation Yrotation Xrotation
									JOINT RightHandIndex1
									{
										OFFSET -0.622530 -0.000000 -0.000000
										CHANNELS 3 Zrotation Yrotation Xrotation
										End Site
										{
											OFFSET 0.000000 0.000000 0.000000
										}
									}
								}
								JOINT RThumb
								{
									OFFSET 0.000000 0.000000 0.000000
									CHANNELS 3 Zrotation Yrotation Xrotation
									End Site
									{
										OFFSET 0.000000 0.000000 0.000000
									}
								}
							}
						}
					}
				}
			}
		}
	}
}
}
MOTION
Frames: 15
Frame Time: 0.008333
1.757255 17.448569 -1.718896 135.758946 -68.037639 -122.931007 0.162591 -1.350438 6.724018 -0.594320 -1.179735 -2.057941 -5.591076 -1.300188 -1.151649 9.864675 0.864487 -0.214063 -4.864197 -0.394920 1.693330 0.000000 0.000000 0.000000 -3.786033 -8.023151 2.178283 -69.521825 -6.972671 8.881000 -2.578065 -29.752260 -0.001881 4.233013 -4.620802 -0.176351 -0.055126 0.100769 0.000000 0.000000 0.000000 0.000000 0.000000 0.000000 0.000000 21.902253 -0.651291 2.206822 57.601356 16.374187 -7.587920 3.244492 11.585248 0.009660 -2.420370 10.195480 -0.224835 0.076718 -0.111623 0.000000 0.000000 0.000000 0.000000 0.000000 0.000000 0.000000 
1.771417 17.450450 -1.714901 136.305798 -67.906011 -123.259783 0.270000 -1.312652 6.726732 -0.571364 -1.141829 -2.056313 -5.579999 -1.263037 -1.136801 9.832513 0.924636 -0.164817 -4.864392 -0.394968 1.702117 0.000000 0.000000 0.000000 -3.895326 -8.025563 2.177319 -69.576190 -6.989319 8.711302 -2.570711 -29.513153 -0.002002 4.311916 -4.657822 -0.180959 -0.054418 0.100051 0.000000 0.000000 0.000000 0.000000 0.000000 0.000000 0.000000 21.882363 -0.611266 2.199668 57.619699 16.502003 -7.524653 3.241127 11.604098 0.009673 -2.413246 10.213575 -0.224535 0.076644 -0.111928 0.000000 0.000000 0.000000 0.000000 0.000000 0.000000 0.000000 
1.785226 17.452251 -1.711171 136.916066 -67.761158 -123.674469 0.379753 -1.269449 6.742179 -0.549370 -1.098329 -2.051196 -5.569891 -1.220106 -1.121538 9.796869 0.980423 -0.115417 -4.865392 -0.395061 1.710746 0.000000 0.000000 0.000000 -4.002263 -8.016663 2.173378 -69.641060 -6.994685 8.532678 -2.560826 -29.292123 -0.002144 4.406579 -4.703792 -0.186667 -0.053648 0.099285 0.000000 0.000000 0.000000 0.000000 0.000000 0.000000 0.000000 21.862126 -0.571429 2.191325 57.653284 16.638729 -7.431392 3.239170 11.630859 0.009705 -2.396821 10.231674 -0.223434 0.076573 -0.112226 0.000000 0.000000 0.000000 0.000000 0.000000 0.000000 0.000000 
1.798559 17.453943 -1.707870 137.590795 -67.596160 -124.184293 0.490732 -1.220099 6.776666 -0.528753 -1.048422 -2.040781 -5.560140 -1.170505 -1.105240 9.756714 1.033339 -0.066221 -4.866940 -0.395170 1.719069 0.000000 0.000000 0.000000 -4.108638 -7.989579 2.166524 -69.714939 -6.994849 8.345395 -2.549155 -29.088296 -0.002290 4.506996 -4.755404 -0.192875 -0.052824 0.098476 0.000000 0.000000 0.000000 0.000000 0.000000 0.000000 0.000000 21.839415 -0.528801 2.181356 57.703333 16.782826 -7.313273 3.238371 11.665582 0.009750 -2.371107 10.247378 -0.221433 0.076493 -0.112519 0.000000 0.000000 0.000000 0.000000 0.000000 0.000000 0.000000 
1.811116 17.455578 -1.704753 138.342376 -67.405182 -124.810201 0.601148 -1.163375 6.836674 -0.510177 -0.990831 -2.023385 -5.550581 -1.112908 -1.088062 9.710108 1.083836 -0.016723 -4.868767 -0.395282 1.727225 0.000000 0.000000 0.000000 -4.216102 -7.943295 2.156687 -69.797189 -6.986672 8.141306 -2.536022 -28.906134 -0.002426 4.602103 -4.808185 -0.198985 -0.051910 0.097597 0.000000 0.000000 0.000000 0.000000 0.000000 0.000000 0.000000 21.810614 -0.481575 2.169740 57.771200 16.932580 -7.170943 3.238744 11.707127 0.009809 -2.338084 10.259081 -0.218732 0.076423 -0.112812 0.000000 0.000000 0.000000 0.000000 0.000000 0.000000 0.000000 
1.822696 17.457057 -1.701775 139.175543 -67.176017 -125.570558 0.707754 -1.097857 6.932907 -0.494407 -0.923912 -1.996426 -5.540234 -1.045597 -1.070036 9.654514 1.135536 0.033849 -4.870434 -0.395361 1.735320 0.000000 0.000000 0.000000 -4.327792 -7.871454 2.143975 -69.886824 -6.972828 7.915172 -2.521993 -28.745562 -0.002541 4.682410 -4.858646 -0.204392 -0.050898 0.096637 0.000000 0.000000 0.000000 0.000000 0.000000 0.000000 0.000000 21.771030 -0.424176 2.156015 57.858624 17.083923 -7.009524 3.239943 11.756098 0.009871 -2.298065 10.265575 -0.215231 0.076348 -0.113113 0.000000 0.000000 0.000000 0.000000 0.000000 0.000000 0.000000 
1.833029 17.458339 -1.698807 140.090976 -66.895254 -126.480584 0.804986 -1.022183 7.074733 -0.482457 -0.846017 -1.957832 -5.528099 -0.966881 -1.051273 9.586941 1.187228 0.085790 -4.871642 -0.395386 1.743378 0.000000 0.000000 0.000000 -4.446163 -7.772383 2.127902 -69.984582 -6.948533 7.656480 -2.507195 -28.611150 -0.002621 4.739554 -4.903332 -0.208700 -0.049749 0.095552 0.000000 0.000000 0.000000 0.000000 0.000000 0.000000 0.000000 21.716361 -0.356601 2.139962 57.966150 17.237330 -6.820487 3.242043 11.809739 0.009940 -2.255312 10.266668 -0.211329 0.076307 -0.113416 0.000000 0.000000 0.000000 0.000000 0.000000 0.000000 0.000000 
1.841689 17.459335 -1.695619 141.082633 -66.550272 -127.544992 0.887599 -0.936148 7.271549 -0.474793 -0.756508 -1.905925 -5.512951 -0.876133 -1.031601 9.504004 1.242099 0.139396 -4.871807 -0.395304 1.751353 0.000000 0.000000 0.000000 -4.575226 -7.639099 2.108585 -70.091150 -6.915946 7.360402 -2.492119 -28.501082 -0.002663 4.768836 -4.940253 -0.211409 -0.048464 0.094328 0.000000 0.000000 0.000000 0.000000 0.000000 0.000000 0.000000 21.640548 -0.274782 2.120874 58.094830 17.389191 -6.606186 3.244720 11.868454 0.010011 -2.210132 10.262457 -0.207128 0.076294 -0.113720 0.000000 0.000000 0.000000 0.000000 0.000000 0.000000 0.000000 
1.848346 17.459970 -1.692016 142.115038 -66.131265 -128.733386 0.946991 -0.841803 7.524080 -0.472107 -0.657055 -1.841216 -5.493622 -0.775087 -1.010567 9.403436 1.298018 0.194066 -4.870819 -0.395101 1.759074 0.000000 0.000000 0.000000 -4.718687 -7.470361 2.086012 -70.206426 -6.871818 7.020933 -2.477048 -28.417242 -0.002665 4.768762 -4.967737 -0.212417 -0.047037 0.092939 0.000000 0.000000 0.000000 0.000000 0.000000 0.000000 0.000000 21.541401 -0.182450 2.098002 58.242775 17.540789 -6.355088 3.247934 11.930915 0.010085 -2.165893 10.253380 -0.203027 0.076339 -0.113992 0.000000 0.000000 0.000000 0.000000 0.000000 0.000000 0.000000 
1.852896 17.460115 -1.687732 143.139280 -65.637810 -130.000438 0.976903 -0.743932 7.830733 -0.473885 -0.551906 -1.765581 -5.468420 -0.668097 -0.988716 9.282846 1.364036 0.250693 -4.867517 -0.394694 1.766820 0.000000 0.000000 0.000000 -4.878542 -7.258913 2.061379 -70.332761 -6.822998 6.640155 -2.463026 -28.351372 -0.002628 4.741859 -4.986723 -0.211925 -0.045541 0.091447 0.000000 0.000000 0.000000 0.000000 0.000000 0.000000 0.000000 21.410803 -0.071754 2.069807 58.413366 17.679128 -6.088603 3.250789 12.003446 0.010164 -2.115474 10.238740 -0.198126 0.076363 -0.114226 0.000000 0.000000 0.000000 0.000000 0.000000 0.000000 0.000000 
1.854828 17.459750 -1.682760 144.072951 -65.076566 -131.239760 0.967810 -0.650189 8.163817 -0.480971 -0.449240 -1.684924 -5.436902 -0.563431 -0.963690 9.143112 1.429453 0.306904 -4.862786 -0.394161 1.774308 0.000000 0.000000 0.000000 -5.058520 -7.013322 2.034815 -70.467400 -6.760397 6.215295 -2.450145 -28.307277 -0.002562 4.692720 -4.996523 -0.210032 -0.043982 0.089840 0.000000 0.000000 0.000000 0.000000 0.000000 0.000000 0.000000 21.255456 0.039378 2.035104 58.597705 17.814154 -5.777065 3.253765 12.083699 0.010249 -2.065692 10.219626 -0.193224 0.076451 -0.114334 0.000000 0.000000 0.000000 0.000000 0.000000 0.000000 0.000000 
1.853789 17.458912 -1.676739 144.871534 -64.470001 -132.375482 0.926150 -0.567332 8.489962 -0.491570 -0.357061 -1.605664 -5.399118 -0.469179 -0.933112 8.984037 1.488813 0.360604 -4.856917 -0.393551 1.781412 0.000000 0.000000 0.000000 -5.262066 -6.736841 2.006506 -70.610276 -6.683521 5.751375 -2.438358 -28.281119 -0.002480 4.629109 -4.998592 -0.207140 -0.042396 0.088163 0.000000 0.000000 0.000000 0.000000 0.000000 0.000000 0.000000 21.076879 0.140363 1.992499 58.789966 17.947925 -5.411287 3.257442 12.174425 0.010354 -2.016405 10.195995 -0.188425 0.076647 -0.114259 0.000000 0.000000 0.000000 0.000000 0.000000 0.000000 0.000000 
1.849648 17.457339 -1.669298 145.553707 -63.853809 -133.396168 0.884038 -0.499271 8.781215 -0.498661 -0.280565 -1.533649 -5.355000 -0.390720 -0.896576 8.803313 1.547213 0.411680 -4.848976 -0.392830 1.788578 0.000000 0.000000 0.000000 -5.491292 -6.428522 1.976876 -70.765686 -6.596499 5.257195 -2.426993 -28.261851 -0.002397 4.560176 -4.996342 -0.203848 -0.040833 0.086504 -0.000000 0.000000 0.000000 0.000000 0.000000 0.000000 0.000000 20.866873 0.235108 1.941011 58.989509 18.067961 -5.010649 3.262437 12.284772 0.010487 -1.958238 10.166640 -0.182623 0.076922 -0.114007 0.000000 0.000000 0.000000 0.000000 0.000000 0.000000 0.000000 
1.842097 17.455141 -1.660109 146.163391 -63.275481 -134.296355 0.881819 -0.449891 8.999299 -0.493484 -0.224441 -1.477407 -5.307124 -0.333065 -0.852828 8.603717 1.601257 0.458564 -4.839573 -0.392060 1.795788 0.000000 0.000000 0.000000 -5.747529 -6.095684 1.946021 -70.933478 -6.497750 4.742832 -2.415034 -28.243075 -0.002324 4.495120 -4.992261 -0.200655 -0.039293 0.084878 -0.000000 0.000000 0.000000 0.000000 0.000000 0.000000 0.000000 20.629429 0.316214 1.880750 59.187754 18.172685 -4.574704 3.269997 12.421059 0.010662 -1.888362 10.130899 -0.175723 0.077310 -0.113540 0.000000 0.000000 0.000000 0.000000 0.000000 0.000000 0.000000 
1.831271 17.452438 -1.649039 146.765421 -62.786866 -135.102555 0.969351 -0.421816 9.118269 -0.464627 -0.190928 -1.444221 -5.258354 -0.298837 -0.801827 8.389445 1.649007 0.499775 -4.829279 -0.391268 1.802859 0.000000 0.000000 0.000000 -6.031586 -5.745015 1.914116 -71.112658 -6.391544 4.222978 -2.401433 -28.212569 -0.002276 4.442943 -4.990142 -0.198164 -0.037771 0.083290 -0.000000 0.000000 0.000000 0.000000 0.000000 0.000000 0.000000 20.369167 0.378764 1.812607 59.375032 18.259684 -4.106055 3.281327 12.586942 0.010887 -1.805060 10.092288 -0.167622 0.077829 -0.112841 0.000000 0.000000 0.000000 0.000000 0.000000 0.000000 0.000000 
